# xmcd CD database file
#
# Track frame offsets:
#	150
#	18582
#	36450
#	54642
#	69132
#	83345
#	99527
#	117482
#	134147
#	153520
#	177220
#	194500
#	210125
#	225190
#	241765
#
# Disc length: 3427 seconds
#
# Revision: 0
# Processed by: cddbd v1.5.2PL0 Copyright (c) Steve Scherf et al.
# Submitted via: CDex 1.51
#
DISCID=bf0d610f
DTITLE=Varius - Relaxation
DYEAR=2005
DGENRE=New Age
TTITLE0=The Castle
TTITLE1=Pastime Rime
TTITLE2=First Session
TTITLE3=On the beach
TTITLE4=Toracia Del Mar
TTITLE5=Ocalia
TTITLE6=Midnight Jam Session
TTITLE7=Indian Wolf
TTITLE8=Santa Maria
TTITLE9=Salam Halima
TTITLE10=Emisphere
TTITLE11=Alguadavez
TTITLE12=China Express
TTITLE13=The color of the mind
TTITLE14=Jeremiah's day
EXTD=YEAR: 2005
EXTT0=
EXTT1=
EXTT2=
EXTT3=
EXTT4=
EXTT5=
EXTT6=
EXTT7=
EXTT8=
EXTT9=
EXTT10=
EXTT11=
EXTT12=
EXTT13=
EXTT14=
PLAYORDER=
